<svg width="885" height="709" viewBox="0 0 885 709" fill="none" xmlns="http://www.w3.org/2000/svg">
<path d="M22.9721 545.335L2.11206 510.726L40.0394 370.869L82.7076 285.059L122.531 235.753L168.518 160.372L284.671 58.4428L324.494 34.7382L366.214 18.6191L610.846 2.5L746.436 6.76682L775.829 38.531L798.112 161.795L853.58 196.878L871.596 240.968L882.5 434.871L858.321 556.239L801.43 596.537L592.356 707L552.532 678.08L521.716 696.096L439.224 688.985L261.44 643.472L232.521 635.412L169.466 581.366L153.347 599.381L132.013 596.063L123.954 569.988L58.0549 555.291L22.9721 545.335Z" stroke="#232323" stroke-width="3"/>
<path d="M147.184 193.559L240.106 240.968L255.277 275.103L263.811 323.46L240.106 328.675L147.184 420.649L57.5808 556.239M202.653 365.746L291.782 441.983L306.953 437.716L328.287 453.835L350.095 446.25L389.919 480.384L365.266 516.415L287.041 595.588L260.966 642.998" stroke="#232323" stroke-width="3"/>
<path d="M489.004 694.2V672.865L474.307 649.635L470.988 601.278L484.263 519.26M484.263 519.26L529.776 538.223L579.081 514.519L603.734 451.939M484.263 519.26L454.395 506.715M389.445 479.436L454.395 506.715M736.954 631.145L603.734 451.939M603.734 451.939L625.542 398.841M878.233 460.472L790.289 441.746M625.542 398.841L702.345 423.019L790.289 441.746M625.542 398.841L621.463 374.662M854.054 197.352L813.757 211.1L787.208 214.893H740.747L676.27 243.338M676.27 243.338L680.431 249.976M676.27 243.338L645.454 197.352L636.921 166.536L606.579 147.572M790.289 441.746L771.088 394.574L680.431 249.976M680.431 249.976L606.105 283.636L621.463 374.662M637.395 2.5L645.454 57.4946L606.579 147.572M606.579 147.572L523.139 150.891M417.89 14.3523L396.556 111.541L404.142 145.676M404.142 145.676L427.846 142.831L478.574 163.691L523.139 150.891M404.142 145.676L256.225 191.188L239.632 240.968M523.139 150.891L520.768 252.82M350.569 446.724L419.787 390.781L440.173 351.905M454.395 506.715L502.279 390.781L530.642 321.564M553.955 264.673L530.642 321.564M621.463 374.662L606.105 370.869L530.642 321.564M530.642 321.564L430.217 283.636L413.149 264.673" stroke="#232323" stroke-width="3"/>
<path d="M263.336 322.986C284.513 317.929 329.709 307.815 341.087 307.815C355.31 307.815 370.007 311.134 377.118 314.926C377.16 314.968 377.211 314.968 377.271 314.926M403.193 146.15L397.978 235.279C395.837 244.489 392.925 256.777 389.953 268.939M377.271 314.926L480.944 373.714L490.426 386.514L512.234 395.048H522.19L575.289 423.493L603.734 451.939M377.271 314.926C378.627 313.979 384.397 291.677 389.953 268.939M389.953 268.939L490.426 246.657L520.294 252.346L606.579 283.636" stroke="#232323" stroke-width="3"/>
</svg>
