<svg width="343" height="62" viewBox="0 0 343 62" fill="none" xmlns="http://www.w3.org/2000/svg">
<rect x="7" y="47" width="84" height="15" fill="#5E02D4" fill-opacity="0.4"/>
<rect x="91" y="47" width="86" height="15" fill="#5E02D4" fill-opacity="0.6"/>
<rect x="177" y="47" width="84" height="15" fill="#5E02D4" fill-opacity="0.8"/>
<path d="M0.928 13C0.874667 13 0.832 12.984 0.8 12.952C0.768 12.92 0.752 12.8773 0.752 12.824V7.584C0.752 7.53067 0.768 7.488 0.8 7.456C0.832 7.41867 0.874667 7.4 0.928 7.4H2.872C3.44267 7.4 3.89067 7.544 4.216 7.832C4.54667 8.11467 4.712 8.52267 4.712 9.056C4.712 9.58933 4.54667 10 4.216 10.288C3.89067 10.5707 3.44267 10.712 2.872 10.712H1.256V12.824C1.256 12.8773 1.23733 12.92 1.2 12.952C1.168 12.984 1.12533 13 1.072 13H0.928ZM2.832 10.232C3.29067 10.232 3.63467 10.1333 3.864 9.936C4.09333 9.73333 4.208 9.44 4.208 9.056C4.208 8.672 4.09333 8.38133 3.864 8.184C3.63467 7.98133 3.29067 7.88 2.832 7.88H1.256V10.232H2.832ZM7.20075 13.08C6.64608 13.08 6.21408 12.912 5.90475 12.576C5.60075 12.2347 5.44075 11.7947 5.42475 11.256L5.41675 10.92L5.42475 10.584C5.44075 10.0453 5.60075 9.608 5.90475 9.272C6.21408 8.93067 6.64608 8.76 7.20075 8.76C7.75542 8.76 8.18475 8.93067 8.48875 9.272C8.79808 9.608 8.96075 10.0453 8.97675 10.584C8.98208 10.6373 8.98475 10.7493 8.98475 10.92C8.98475 11.0907 8.98208 11.2027 8.97675 11.256C8.96075 11.7947 8.79808 12.2347 8.48875 12.576C8.18475 12.912 7.75542 13.08 7.20075 13.08ZM7.20075 12.616C7.57942 12.616 7.88342 12.496 8.11275 12.256C8.34742 12.0107 8.47275 11.664 8.48875 11.216C8.49408 11.1627 8.49675 11.064 8.49675 10.92C8.49675 10.776 8.49408 10.6773 8.48875 10.624C8.47275 10.176 8.34742 9.832 8.11275 9.592C7.88342 9.34667 7.57942 9.224 7.20075 9.224C6.82208 9.224 6.51542 9.34667 6.28075 9.592C6.05142 9.832 5.92875 10.176 5.91275 10.624L5.90475 10.92L5.91275 11.216C5.92875 11.664 6.05142 12.0107 6.28075 12.256C6.51542 12.496 6.82208 12.616 7.20075 12.616ZM11.6377 13.08C11.115 13.08 10.7177 12.9147 10.4457 12.584C10.1737 12.2533 10.0377 11.8213 10.0377 11.288V9.016C10.0377 8.96267 10.0537 8.92 10.0857 8.888C10.1177 8.856 10.1604 8.84 10.2137 8.84H10.3497C10.403 8.84 10.4457 8.856 10.4777 8.888C10.5097 8.92 10.5257 8.96267 10.5257 9.016V11.248C10.5257 12.16 10.923 12.616 11.7177 12.616C12.1017 12.616 12.4057 12.496 12.6297 12.256C12.859 12.0107 12.9737 11.6747 12.9737 11.248V9.016C12.9737 8.96267 12.9897 8.92 13.0217 8.888C13.0537 8.856 13.0964 8.84 13.1497 8.84H13.2857C13.339 8.84 13.3817 8.856 13.4137 8.888C13.4457 8.92 13.4617 8.96267 13.4617 9.016V12.824C13.4617 12.8773 13.4457 12.92 13.4137 12.952C13.3817 12.984 13.339 13 13.2857 13H13.1497C13.0964 13 13.0537 12.984 13.0217 12.952C12.9897 12.92 12.9737 12.8773 12.9737 12.824V12.448C12.8137 12.656 12.6297 12.8133 12.4217 12.92C12.219 13.0267 11.9577 13.08 11.6377 13.08ZM14.9334 13C14.88 13 14.8374 12.984 14.8054 12.952C14.7734 12.92 14.7574 12.8773 14.7574 12.824V9.024C14.7574 8.97067 14.7734 8.928 14.8054 8.896C14.8374 8.85867 14.88 8.84 14.9334 8.84H15.0614C15.1147 8.84 15.1574 8.85867 15.1894 8.896C15.2267 8.928 15.2454 8.97067 15.2454 9.024V9.392C15.4374 9.024 15.8 8.84 16.3334 8.84H16.6294C16.6827 8.84 16.7254 8.856 16.7574 8.888C16.7894 8.92 16.8054 8.96267 16.8054 9.016V9.128C16.8054 9.18133 16.7894 9.224 16.7574 9.256C16.7254 9.288 16.6827 9.304 16.6294 9.304H16.2854C15.9654 9.304 15.712 9.39733 15.5254 9.584C15.3387 9.77067 15.2454 10.024 15.2454 10.344V12.824C15.2454 12.8773 15.2267 12.92 15.1894 12.952C15.1574 12.984 15.1147 13 15.0614 13H14.9334ZM19.0209 13.08C18.4662 13.08 18.0369 12.92 17.7329 12.6C17.4289 12.2747 17.2689 11.8213 17.2529 11.24L17.2449 10.92L17.2529 10.6C17.2689 10.0187 17.4289 9.568 17.7329 9.248C18.0369 8.92267 18.4662 8.76 19.0209 8.76C19.3729 8.76 19.6715 8.824 19.9169 8.952C20.1675 9.07467 20.3542 9.23467 20.4769 9.432C20.5995 9.624 20.6662 9.824 20.6769 10.032C20.6822 10.08 20.6662 10.1227 20.6289 10.16C20.5915 10.192 20.5489 10.208 20.5009 10.208H20.3889C20.3355 10.208 20.2955 10.1973 20.2689 10.176C20.2475 10.1493 20.2235 10.104 20.1969 10.04C20.0902 9.74667 19.9409 9.53867 19.7489 9.416C19.5569 9.288 19.3142 9.224 19.0209 9.224C18.6369 9.224 18.3302 9.34133 18.1009 9.576C17.8769 9.80533 17.7569 10.16 17.7409 10.64L17.7329 10.92L17.7409 11.2C17.7569 11.68 17.8769 12.0373 18.1009 12.272C18.3302 12.5013 18.6369 12.616 19.0209 12.616C19.3142 12.616 19.5569 12.5547 19.7489 12.432C19.9409 12.304 20.0902 12.0933 20.1969 11.8C20.2235 11.736 20.2475 11.6933 20.2689 11.672C20.2955 11.6453 20.3355 11.632 20.3889 11.632H20.5009C20.5489 11.632 20.5915 11.6507 20.6289 11.688C20.6662 11.72 20.6822 11.76 20.6769 11.808C20.6662 12.016 20.5995 12.2187 20.4769 12.416C20.3542 12.608 20.1675 12.768 19.9169 12.896C19.6715 13.0187 19.3729 13.08 19.0209 13.08ZM23.2779 13.08C22.7713 13.08 22.3633 12.9147 22.0539 12.584C21.7446 12.248 21.5686 11.8 21.5259 11.24L21.5179 10.92L21.5259 10.6C21.5686 10.0453 21.7419 9.6 22.0459 9.264C22.3553 8.928 22.7659 8.76 23.2779 8.76C23.8326 8.76 24.2646 8.944 24.5739 9.312C24.8886 9.68 25.0459 10.184 25.0459 10.824V10.944C25.0459 10.9973 25.0273 11.04 24.9899 11.072C24.9579 11.104 24.9153 11.12 24.8619 11.12H22.0139V11.2C22.0246 11.4507 22.0806 11.6853 22.1819 11.904C22.2886 12.1173 22.4353 12.2907 22.6219 12.424C22.8086 12.552 23.0273 12.616 23.2779 12.616C23.5713 12.616 23.8086 12.56 23.9899 12.448C24.1766 12.3307 24.3099 12.2133 24.3899 12.096C24.4379 12.032 24.4726 11.992 24.4939 11.976C24.5206 11.96 24.5659 11.952 24.6299 11.952H24.7579C24.8059 11.952 24.8459 11.9653 24.8779 11.992C24.9099 12.0187 24.9259 12.0533 24.9259 12.096C24.9259 12.208 24.8539 12.344 24.7099 12.504C24.5713 12.6587 24.3766 12.7947 24.1259 12.912C23.8753 13.024 23.5926 13.08 23.2779 13.08ZM24.5579 10.672V10.64C24.5579 10.2293 24.4406 9.89067 24.2059 9.624C23.9766 9.35733 23.6673 9.224 23.2779 9.224C22.8886 9.224 22.5793 9.35733 22.3499 9.624C22.1259 9.89067 22.0139 10.2293 22.0139 10.64V10.672H24.5579ZM26.2771 13C26.2238 13 26.1811 12.984 26.1491 12.952C26.1171 12.92 26.1011 12.8773 26.1011 12.824V9.016C26.1011 8.96267 26.1171 8.92 26.1491 8.888C26.1811 8.856 26.2238 8.84 26.2771 8.84H26.4131C26.4665 8.84 26.5091 8.856 26.5411 8.888C26.5731 8.92 26.5891 8.96267 26.5891 9.016V9.392C26.7491 9.184 26.9305 9.02667 27.1331 8.92C27.3411 8.81333 27.6078 8.76 27.9331 8.76C28.4558 8.76 28.8585 8.928 29.1411 9.264C29.4238 9.59467 29.5651 10.024 29.5651 10.552V12.824C29.5651 12.8773 29.5491 12.92 29.5171 12.952C29.4851 12.984 29.4425 13 29.3891 13H29.2531C29.1998 13 29.1571 12.984 29.1251 12.952C29.0931 12.92 29.0771 12.8773 29.0771 12.824V10.592C29.0771 10.16 28.9705 9.824 28.7571 9.584C28.5491 9.344 28.2478 9.224 27.8531 9.224C27.4691 9.224 27.1625 9.34667 26.9331 9.592C26.7038 9.832 26.5891 10.1653 26.5891 10.592V12.824C26.5891 12.8773 26.5731 12.92 26.5411 12.952C26.5091 12.984 26.4665 13 26.4131 13H26.2771ZM32.1574 13C31.7627 13 31.4827 12.8827 31.3174 12.648C31.152 12.408 31.0694 12.08 31.0694 11.664V9.304H30.4454C30.392 9.304 30.3494 9.288 30.3174 9.256C30.2854 9.224 30.2694 9.18133 30.2694 9.128V9.016C30.2694 8.96267 30.2854 8.92 30.3174 8.888C30.3494 8.856 30.392 8.84 30.4454 8.84H31.0694V7.496C31.0694 7.44267 31.0854 7.4 31.1174 7.368C31.1494 7.336 31.192 7.32 31.2454 7.32H31.3814C31.4347 7.32 31.4774 7.336 31.5094 7.368C31.5414 7.4 31.5574 7.44267 31.5574 7.496V8.84H32.5494C32.6027 8.84 32.6454 8.856 32.6774 8.888C32.7094 8.92 32.7254 8.96267 32.7254 9.016V9.128C32.7254 9.18133 32.7094 9.224 32.6774 9.256C32.6454 9.288 32.6027 9.304 32.5494 9.304H31.5574V11.632C31.5574 11.9307 31.6054 12.1573 31.7014 12.312C31.8027 12.4613 31.968 12.536 32.1974 12.536H32.6294C32.6827 12.536 32.7254 12.552 32.7574 12.584C32.7894 12.616 32.8054 12.6587 32.8054 12.712V12.824C32.8054 12.8773 32.7894 12.92 32.7574 12.952C32.7254 12.984 32.6827 13 32.6294 13H32.1574ZM34.7524 13.08C34.4964 13.08 34.259 13.0267 34.0404 12.92C33.8217 12.8133 33.6457 12.6693 33.5124 12.488C33.3844 12.3067 33.3204 12.1067 33.3204 11.888C33.3204 11.536 33.4617 11.248 33.7444 11.024C34.0324 10.8 34.419 10.656 34.9044 10.592L36.1684 10.416V10.136C36.1684 9.84267 36.0777 9.61867 35.8964 9.464C35.7204 9.304 35.4484 9.224 35.0804 9.224C34.8084 9.224 34.5844 9.27733 34.4084 9.384C34.2377 9.49067 34.1284 9.61867 34.0804 9.768C34.059 9.832 34.0324 9.87733 34.0004 9.904C33.9737 9.92533 33.9364 9.936 33.8884 9.936H33.7764C33.7284 9.936 33.6857 9.92 33.6484 9.888C33.6164 9.85067 33.6004 9.808 33.6004 9.76C33.6004 9.64267 33.6537 9.50667 33.7604 9.352C33.867 9.192 34.0324 9.05333 34.2564 8.936C34.4804 8.81867 34.755 8.76 35.0804 8.76C35.651 8.76 36.0564 8.896 36.2964 9.168C36.5364 9.44 36.6564 9.77067 36.6564 10.16V12.824C36.6564 12.8773 36.6404 12.92 36.6084 12.952C36.5764 12.984 36.5337 13 36.4804 13H36.3444C36.291 13 36.2484 12.984 36.2164 12.952C36.1844 12.92 36.1684 12.8773 36.1684 12.824V12.448C36.051 12.624 35.8777 12.7733 35.6484 12.896C35.4244 13.0187 35.1257 13.08 34.7524 13.08ZM34.8324 12.616C35.2217 12.616 35.5417 12.488 35.7924 12.232C36.043 11.976 36.1684 11.608 36.1684 11.128V10.856L35.1364 11C34.699 11.0587 34.3684 11.16 34.1444 11.304C33.9204 11.448 33.8084 11.6293 33.8084 11.848C33.8084 12.0933 33.9097 12.2827 34.1124 12.416C34.3204 12.5493 34.5604 12.616 34.8324 12.616ZM39.4734 14.76C39.0574 14.76 38.7241 14.688 38.4734 14.544C38.2228 14.4 38.0468 14.2347 37.9454 14.048C37.8494 13.8667 37.8014 13.7067 37.8014 13.568C37.8014 13.52 37.8174 13.48 37.8494 13.448C37.8868 13.416 37.9294 13.4 37.9774 13.4H38.0894C38.1374 13.4 38.1748 13.4107 38.2014 13.432C38.2334 13.4587 38.2601 13.504 38.2814 13.568C38.4468 14.0533 38.8308 14.296 39.4334 14.296C39.8921 14.296 40.2308 14.2 40.4494 14.008C40.6681 13.8213 40.7774 13.4853 40.7774 13V12.448C40.4681 12.8693 40.0201 13.08 39.4334 13.08C38.8574 13.08 38.4308 12.8933 38.1534 12.52C37.8814 12.1413 37.7374 11.6827 37.7214 11.144L37.7134 10.92L37.7214 10.696C37.7374 10.1573 37.8814 9.70133 38.1534 9.328C38.4308 8.94933 38.8574 8.76 39.4334 8.76C40.0148 8.76 40.4628 8.97067 40.7774 9.392V9.024C40.7774 8.97067 40.7934 8.928 40.8254 8.896C40.8574 8.85867 40.9001 8.84 40.9534 8.84H41.0814C41.1348 8.84 41.1774 8.85867 41.2094 8.896C41.2468 8.928 41.2654 8.97067 41.2654 9.024V12.92C41.2654 13.4907 41.1321 13.9387 40.8654 14.264C40.5988 14.5947 40.1348 14.76 39.4734 14.76ZM39.4814 12.616C39.9028 12.616 40.2201 12.4773 40.4334 12.2C40.6468 11.9173 40.7614 11.5867 40.7774 11.208C40.7828 11.1547 40.7854 11.0587 40.7854 10.92C40.7854 10.7813 40.7828 10.6853 40.7774 10.632C40.7614 10.2533 40.6468 9.92533 40.4334 9.648C40.2201 9.36533 39.9028 9.224 39.4814 9.224C39.0494 9.224 38.7321 9.36267 38.5294 9.64C38.3321 9.912 38.2254 10.264 38.2094 10.696L38.2014 10.92L38.2094 11.144C38.2254 11.576 38.3321 11.9307 38.5294 12.208C38.7321 12.48 39.0494 12.616 39.4814 12.616ZM44.1139 13.08C43.6072 13.08 43.1992 12.9147 42.8899 12.584C42.5805 12.248 42.4045 11.8 42.3619 11.24L42.3539 10.92L42.3619 10.6C42.4045 10.0453 42.5779 9.6 42.8819 9.264C43.1912 8.928 43.6019 8.76 44.1139 8.76C44.6685 8.76 45.1005 8.944 45.4099 9.312C45.7245 9.68 45.8819 10.184 45.8819 10.824V10.944C45.8819 10.9973 45.8632 11.04 45.8259 11.072C45.7939 11.104 45.7512 11.12 45.6979 11.12H42.8499V11.2C42.8605 11.4507 42.9165 11.6853 43.0179 11.904C43.1245 12.1173 43.2712 12.2907 43.4579 12.424C43.6445 12.552 43.8632 12.616 44.1139 12.616C44.4072 12.616 44.6445 12.56 44.8259 12.448C45.0125 12.3307 45.1459 12.2133 45.2259 12.096C45.2739 12.032 45.3085 11.992 45.3299 11.976C45.3565 11.96 45.4019 11.952 45.4659 11.952H45.5939C45.6419 11.952 45.6819 11.9653 45.7139 11.992C45.7459 12.0187 45.7619 12.0533 45.7619 12.096C45.7619 12.208 45.6899 12.344 45.5459 12.504C45.4072 12.6587 45.2125 12.7947 44.9619 12.912C44.7112 13.024 44.4285 13.08 44.1139 13.08ZM45.3939 10.672V10.64C45.3939 10.2293 45.2765 9.89067 45.0419 9.624C44.8125 9.35733 44.5032 9.224 44.1139 9.224C43.7245 9.224 43.4152 9.35733 43.1859 9.624C42.9619 9.89067 42.8499 10.2293 42.8499 10.64V10.672H45.3939ZM50.5036 13.08C49.9276 13.08 49.5009 12.8933 49.2236 12.52C48.9516 12.1413 48.8076 11.6827 48.7916 11.144L48.7836 10.92L48.7916 10.696C48.8076 10.1573 48.9516 9.70133 49.2236 9.328C49.5009 8.94933 49.9276 8.76 50.5036 8.76C51.0849 8.76 51.5329 8.97067 51.8476 9.392V7.496C51.8476 7.44267 51.8636 7.4 51.8956 7.368C51.9276 7.336 51.9702 7.32 52.0236 7.32H52.1596C52.2129 7.32 52.2556 7.336 52.2876 7.368C52.3196 7.4 52.3356 7.44267 52.3356 7.496V12.824C52.3356 12.8773 52.3196 12.92 52.2876 12.952C52.2556 12.984 52.2129 13 52.1596 13H52.0236C51.9702 13 51.9276 12.984 51.8956 12.952C51.8636 12.92 51.8476 12.8773 51.8476 12.824V12.448C51.5382 12.8693 51.0902 13.08 50.5036 13.08ZM50.5516 12.616C50.9729 12.616 51.2902 12.4773 51.5036 12.2C51.7169 11.9173 51.8316 11.5867 51.8476 11.208C51.8529 11.1547 51.8556 11.0507 51.8556 10.896C51.8556 10.7413 51.8529 10.6373 51.8476 10.584C51.8422 10.3547 51.7916 10.1387 51.6956 9.936C51.5996 9.728 51.4556 9.55733 51.2636 9.424C51.0716 9.29067 50.8342 9.224 50.5516 9.224C50.1196 9.224 49.8022 9.36267 49.5996 9.64C49.4022 9.912 49.2956 10.264 49.2796 10.696L49.2716 10.92C49.2716 11.416 49.3676 11.824 49.5596 12.144C49.7516 12.4587 50.0822 12.616 50.5516 12.616ZM55.1842 13.08C54.6775 13.08 54.2695 12.9147 53.9602 12.584C53.6509 12.248 53.4749 11.8 53.4322 11.24L53.4242 10.92L53.4322 10.6C53.4749 10.0453 53.6482 9.6 53.9522 9.264C54.2615 8.928 54.6722 8.76 55.1842 8.76C55.7389 8.76 56.1709 8.944 56.4802 9.312C56.7949 9.68 56.9522 10.184 56.9522 10.824V10.944C56.9522 10.9973 56.9335 11.04 56.8962 11.072C56.8642 11.104 56.8215 11.12 56.7682 11.12H53.9202V11.2C53.9309 11.4507 53.9869 11.6853 54.0882 11.904C54.1949 12.1173 54.3415 12.2907 54.5282 12.424C54.7149 12.552 54.9335 12.616 55.1842 12.616C55.4775 12.616 55.7149 12.56 55.8962 12.448C56.0829 12.3307 56.2162 12.2133 56.2962 12.096C56.3442 12.032 56.3789 11.992 56.4002 11.976C56.4269 11.96 56.4722 11.952 56.5362 11.952H56.6642C56.7122 11.952 56.7522 11.9653 56.7842 11.992C56.8162 12.0187 56.8322 12.0533 56.8322 12.096C56.8322 12.208 56.7602 12.344 56.6162 12.504C56.4775 12.6587 56.2829 12.7947 56.0322 12.912C55.7815 13.024 55.4989 13.08 55.1842 13.08ZM56.4642 10.672V10.64C56.4642 10.2293 56.3469 9.89067 56.1122 9.624C55.8829 9.35733 55.5735 9.224 55.1842 9.224C54.7949 9.224 54.4855 9.35733 54.2562 9.624C54.0322 9.89067 53.9202 10.2293 53.9202 10.64V10.672H56.4642ZM61.5739 13.08C60.9979 13.08 60.5712 12.8933 60.2939 12.52C60.0219 12.1413 59.8779 11.6827 59.8619 11.144L59.8539 10.92L59.8619 10.696C59.8779 10.1573 60.0219 9.70133 60.2939 9.328C60.5712 8.94933 60.9979 8.76 61.5739 8.76C62.1552 8.76 62.6032 8.97067 62.9179 9.392V7.496C62.9179 7.44267 62.9339 7.4 62.9659 7.368C62.9979 7.336 63.0405 7.32 63.0939 7.32H63.2299C63.2832 7.32 63.3259 7.336 63.3579 7.368C63.3899 7.4 63.4059 7.44267 63.4059 7.496V12.824C63.4059 12.8773 63.3899 12.92 63.3579 12.952C63.3259 12.984 63.2832 13 63.2299 13H63.0939C63.0405 13 62.9979 12.984 62.9659 12.952C62.9339 12.92 62.9179 12.8773 62.9179 12.824V12.448C62.6085 12.8693 62.1605 13.08 61.5739 13.08ZM61.6219 12.616C62.0432 12.616 62.3605 12.4773 62.5739 12.2C62.7872 11.9173 62.9019 11.5867 62.9179 11.208C62.9232 11.1547 62.9259 11.0507 62.9259 10.896C62.9259 10.7413 62.9232 10.6373 62.9179 10.584C62.9125 10.3547 62.8619 10.1387 62.7659 9.936C62.6699 9.728 62.5259 9.55733 62.3339 9.424C62.1419 9.29067 61.9045 9.224 61.6219 9.224C61.1899 9.224 60.8725 9.36267 60.6699 9.64C60.4725 9.912 60.3659 10.264 60.3499 10.696L60.3419 10.92C60.3419 11.416 60.4379 11.824 60.6299 12.144C60.8219 12.4587 61.1525 12.616 61.6219 12.616ZM65.8305 13.08C65.5745 13.08 65.3372 13.0267 65.1185 12.92C64.8998 12.8133 64.7238 12.6693 64.5905 12.488C64.4625 12.3067 64.3985 12.1067 64.3985 11.888C64.3985 11.536 64.5398 11.248 64.8225 11.024C65.1105 10.8 65.4972 10.656 65.9825 10.592L67.2465 10.416V10.136C67.2465 9.84267 67.1558 9.61867 66.9745 9.464C66.7985 9.304 66.5265 9.224 66.1585 9.224C65.8865 9.224 65.6625 9.27733 65.4865 9.384C65.3158 9.49067 65.2065 9.61867 65.1585 9.768C65.1372 9.832 65.1105 9.87733 65.0785 9.904C65.0518 9.92533 65.0145 9.936 64.9665 9.936H64.8545C64.8065 9.936 64.7638 9.92 64.7265 9.888C64.6945 9.85067 64.6785 9.808 64.6785 9.76C64.6785 9.64267 64.7318 9.50667 64.8385 9.352C64.9452 9.192 65.1105 9.05333 65.3345 8.936C65.5585 8.81867 65.8332 8.76 66.1585 8.76C66.7292 8.76 67.1345 8.896 67.3745 9.168C67.6145 9.44 67.7345 9.77067 67.7345 10.16V12.824C67.7345 12.8773 67.7185 12.92 67.6865 12.952C67.6545 12.984 67.6118 13 67.5585 13H67.4225C67.3692 13 67.3265 12.984 67.2945 12.952C67.2625 12.92 67.2465 12.8773 67.2465 12.824V12.448C67.1292 12.624 66.9558 12.7733 66.7265 12.896C66.5025 13.0187 66.2038 13.08 65.8305 13.08ZM65.9105 12.616C66.2998 12.616 66.6198 12.488 66.8705 12.232C67.1212 11.976 67.2465 11.608 67.2465 11.128V10.856L66.2145 11C65.7772 11.0587 65.4465 11.16 65.2225 11.304C64.9985 11.448 64.8865 11.6293 64.8865 11.848C64.8865 12.0933 64.9878 12.2827 65.1905 12.416C65.3985 12.5493 65.6385 12.616 65.9105 12.616ZM70.3605 13C69.9658 13 69.6858 12.8827 69.5205 12.648C69.3552 12.408 69.2725 12.08 69.2725 11.664V9.304H68.6485C68.5952 9.304 68.5525 9.288 68.5205 9.256C68.4885 9.224 68.4725 9.18133 68.4725 9.128V9.016C68.4725 8.96267 68.4885 8.92 68.5205 8.888C68.5525 8.856 68.5952 8.84 68.6485 8.84H69.2725V7.496C69.2725 7.44267 69.2885 7.4 69.3205 7.368C69.3525 7.336 69.3952 7.32 69.4485 7.32H69.5845C69.6378 7.32 69.6805 7.336 69.7125 7.368C69.7445 7.4 69.7605 7.44267 69.7605 7.496V8.84H70.7525C70.8058 8.84 70.8485 8.856 70.8805 8.888C70.9125 8.92 70.9285 8.96267 70.9285 9.016V9.128C70.9285 9.18133 70.9125 9.224 70.8805 9.256C70.8485 9.288 70.8058 9.304 70.7525 9.304H69.7605V11.632C69.7605 11.9307 69.8085 12.1573 69.9045 12.312C70.0058 12.4613 70.1712 12.536 70.4005 12.536H70.8325C70.8858 12.536 70.9285 12.552 70.9605 12.584C70.9925 12.616 71.0085 12.6587 71.0085 12.712V12.824C71.0085 12.8773 70.9925 12.92 70.9605 12.952C70.9285 12.984 70.8858 13 70.8325 13H70.3605ZM73.3795 13.08C72.8728 13.08 72.4648 12.9147 72.1555 12.584C71.8462 12.248 71.6702 11.8 71.6275 11.24L71.6195 10.92L71.6275 10.6C71.6702 10.0453 71.8435 9.6 72.1475 9.264C72.4568 8.928 72.8675 8.76 73.3795 8.76C73.9342 8.76 74.3662 8.944 74.6755 9.312C74.9902 9.68 75.1475 10.184 75.1475 10.824V10.944C75.1475 10.9973 75.1288 11.04 75.0915 11.072C75.0595 11.104 75.0168 11.12 74.9635 11.12H72.1155V11.2C72.1262 11.4507 72.1822 11.6853 72.2835 11.904C72.3902 12.1173 72.5368 12.2907 72.7235 12.424C72.9102 12.552 73.1288 12.616 73.3795 12.616C73.6728 12.616 73.9102 12.56 74.0915 12.448C74.2782 12.3307 74.4115 12.2133 74.4915 12.096C74.5395 12.032 74.5742 11.992 74.5955 11.976C74.6222 11.96 74.6675 11.952 74.7315 11.952H74.8595C74.9075 11.952 74.9475 11.9653 74.9795 11.992C75.0115 12.0187 75.0275 12.0533 75.0275 12.096C75.0275 12.208 74.9555 12.344 74.8115 12.504C74.6728 12.6587 74.4782 12.7947 74.2275 12.912C73.9768 13.024 73.6942 13.08 73.3795 13.08ZM74.6595 10.672V10.64C74.6595 10.2293 74.5422 9.89067 74.3075 9.624C74.0782 9.35733 73.7688 9.224 73.3795 9.224C72.9902 9.224 72.6808 9.35733 72.4515 9.624C72.2275 9.89067 72.1155 10.2293 72.1155 10.64V10.672H74.6595ZM77.5227 13.08C77.176 13.08 76.8827 13.0213 76.6427 12.904C76.408 12.7867 76.2294 12.6533 76.1067 12.504C75.9894 12.3547 75.9307 12.2347 75.9307 12.144C75.9307 12.096 75.9494 12.0587 75.9867 12.032C76.024 12 76.064 11.984 76.1067 11.984H76.2267C76.264 11.984 76.2934 11.992 76.3147 12.008C76.3414 12.0187 76.3707 12.0453 76.4027 12.088C76.52 12.2533 76.6614 12.384 76.8267 12.48C76.9974 12.5707 77.2294 12.616 77.5227 12.616C77.8534 12.616 78.12 12.5547 78.3227 12.432C78.5254 12.304 78.6267 12.1227 78.6267 11.888C78.6267 11.744 78.584 11.6267 78.4987 11.536C78.4187 11.4453 78.2854 11.368 78.0987 11.304C77.9174 11.2347 77.6454 11.1573 77.2827 11.072C76.808 10.9653 76.4827 10.8187 76.3067 10.632C76.136 10.4453 76.0507 10.208 76.0507 9.92C76.0507 9.72267 76.104 9.536 76.2107 9.36C76.3227 9.184 76.4854 9.04 76.6987 8.928C76.9174 8.816 77.1787 8.76 77.4827 8.76C77.8027 8.76 78.072 8.816 78.2907 8.928C78.5147 9.03467 78.68 9.16 78.7867 9.304C78.8987 9.448 78.9547 9.56533 78.9547 9.656C78.9547 9.704 78.936 9.744 78.8987 9.776C78.8667 9.80267 78.8267 9.816 78.7787 9.816H78.6587C78.584 9.816 78.5254 9.78133 78.4827 9.712C78.376 9.552 78.2534 9.432 78.1147 9.352C77.9814 9.26667 77.7707 9.224 77.4827 9.224C77.1734 9.224 76.9387 9.288 76.7787 9.416C76.6187 9.544 76.5387 9.712 76.5387 9.92C76.5387 10.048 76.5707 10.1547 76.6347 10.24C76.6987 10.3253 76.8187 10.4053 76.9947 10.48C77.1707 10.5493 77.4267 10.6213 77.7627 10.696C78.2587 10.808 78.608 10.9573 78.8107 11.144C79.0134 11.3307 79.1147 11.5787 79.1147 11.888C79.1147 12.1067 79.0534 12.3067 78.9307 12.488C78.808 12.6693 78.6267 12.8133 78.3867 12.92C78.1467 13.0267 77.8587 13.08 77.5227 13.08ZM82.3867 14.52C82.3334 14.52 82.2907 14.504 82.2587 14.472C82.2267 14.44 82.2107 14.3973 82.2107 14.344V9.016C82.2107 8.96267 82.2267 8.92 82.2587 8.888C82.2907 8.856 82.3334 8.84 82.3867 8.84H82.5227C82.576 8.84 82.6187 8.856 82.6507 8.888C82.6827 8.92 82.6987 8.96267 82.6987 9.016V9.392C83.008 8.97067 83.456 8.76 84.0427 8.76C84.6187 8.76 85.0427 8.944 85.3147 9.312C85.592 9.67467 85.7387 10.1227 85.7547 10.656C85.76 10.7093 85.7627 10.7973 85.7627 10.92C85.7627 11.0427 85.76 11.1307 85.7547 11.184C85.7387 11.7173 85.592 12.168 85.3147 12.536C85.0427 12.8987 84.6187 13.08 84.0427 13.08C83.4614 13.08 83.0134 12.8693 82.6987 12.448V14.344C82.6987 14.3973 82.6827 14.44 82.6507 14.472C82.6187 14.504 82.576 14.52 82.5227 14.52H82.3867ZM83.9947 12.616C84.4267 12.616 84.7414 12.48 84.9387 12.208C85.1414 11.9307 85.2507 11.576 85.2667 11.144C85.272 11.0907 85.2747 11.016 85.2747 10.92C85.2747 10.424 85.1787 10.0187 84.9867 9.704C84.7947 9.384 84.464 9.224 83.9947 9.224C83.5734 9.224 83.256 9.36533 83.0427 9.648C82.8294 9.92533 82.7147 10.2533 82.6987 10.632L82.6907 10.944L82.6987 11.256C82.704 11.4853 82.7547 11.704 82.8507 11.912C82.9467 12.1147 83.0907 12.2827 83.2827 12.416C83.4747 12.5493 83.712 12.616 83.9947 12.616ZM87.9711 13.08C87.7151 13.08 87.4778 13.0267 87.2591 12.92C87.0405 12.8133 86.8645 12.6693 86.7311 12.488C86.6031 12.3067 86.5391 12.1067 86.5391 11.888C86.5391 11.536 86.6805 11.248 86.9631 11.024C87.2511 10.8 87.6378 10.656 88.1231 10.592L89.3871 10.416V10.136C89.3871 9.84267 89.2965 9.61867 89.1151 9.464C88.9391 9.304 88.6671 9.224 88.2991 9.224C88.0271 9.224 87.8031 9.27733 87.6271 9.384C87.4565 9.49067 87.3471 9.61867 87.2991 9.768C87.2778 9.832 87.2511 9.87733 87.2191 9.904C87.1925 9.92533 87.1551 9.936 87.1071 9.936H86.9951C86.9471 9.936 86.9045 9.92 86.8671 9.888C86.8351 9.85067 86.8191 9.808 86.8191 9.76C86.8191 9.64267 86.8725 9.50667 86.9791 9.352C87.0858 9.192 87.2511 9.05333 87.4751 8.936C87.6991 8.81867 87.9738 8.76 88.2991 8.76C88.8698 8.76 89.2751 8.896 89.5151 9.168C89.7551 9.44 89.8751 9.77067 89.8751 10.16V12.824C89.8751 12.8773 89.8591 12.92 89.8271 12.952C89.7951 12.984 89.7525 13 89.6991 13H89.5631C89.5098 13 89.4671 12.984 89.4351 12.952C89.4031 12.92 89.3871 12.8773 89.3871 12.824V12.448C89.2698 12.624 89.0965 12.7733 88.8671 12.896C88.6431 13.0187 88.3445 13.08 87.9711 13.08ZM88.0511 12.616C88.4405 12.616 88.7605 12.488 89.0111 12.232C89.2618 11.976 89.3871 11.608 89.3871 11.128V10.856L88.3551 11C87.9178 11.0587 87.5871 11.16 87.3631 11.304C87.1391 11.448 87.0271 11.6293 87.0271 11.848C87.0271 12.0933 87.1285 12.2827 87.3311 12.416C87.5391 12.5493 87.7791 12.616 88.0511 12.616ZM91.3162 13C91.2629 13 91.2202 12.984 91.1882 12.952C91.1562 12.92 91.1402 12.8773 91.1402 12.824V9.024C91.1402 8.97067 91.1562 8.928 91.1882 8.896C91.2202 8.85867 91.2629 8.84 91.3162 8.84H91.4442C91.4975 8.84 91.5402 8.85867 91.5722 8.896C91.6095 8.928 91.6282 8.97067 91.6282 9.024V9.392C91.8202 9.024 92.1829 8.84 92.7162 8.84H93.0122C93.0655 8.84 93.1082 8.856 93.1402 8.888C93.1722 8.92 93.1882 8.96267 93.1882 9.016V9.128C93.1882 9.18133 93.1722 9.224 93.1402 9.256C93.1082 9.288 93.0655 9.304 93.0122 9.304H92.6682C92.3482 9.304 92.0949 9.39733 91.9082 9.584C91.7215 9.77067 91.6282 10.024 91.6282 10.344V12.824C91.6282 12.8773 91.6095 12.92 91.5722 12.952C91.5402 12.984 91.4975 13 91.4442 13H91.3162ZM95.6526 13C95.5993 13 95.5566 12.984 95.5246 12.952C95.4926 12.92 95.4766 12.8773 95.4766 12.824V12.688C95.4766 12.6293 95.514 12.5467 95.5886 12.44L97.9406 9.304H95.7326C95.6793 9.304 95.6366 9.288 95.6046 9.256C95.5726 9.224 95.5566 9.18133 95.5566 9.128V9.016C95.5566 8.96267 95.5726 8.92 95.6046 8.888C95.6366 8.856 95.6793 8.84 95.7326 8.84H98.4206C98.474 8.84 98.5166 8.856 98.5486 8.888C98.5806 8.92 98.5966 8.96267 98.5966 9.016V9.152C98.5966 9.21067 98.5593 9.29333 98.4846 9.4L96.1486 12.536H98.5806C98.634 12.536 98.6766 12.552 98.7086 12.584C98.7406 12.616 98.7566 12.6587 98.7566 12.712V12.824C98.7566 12.8773 98.7406 12.92 98.7086 12.952C98.6766 12.984 98.634 13 98.5806 13H95.6526ZM101.24 13.08C100.685 13.08 100.253 12.912 99.9438 12.576C99.6398 12.2347 99.4798 11.7947 99.4638 11.256L99.4558 10.92L99.4638 10.584C99.4798 10.0453 99.6398 9.608 99.9438 9.272C100.253 8.93067 100.685 8.76 101.24 8.76C101.794 8.76 102.224 8.93067 102.528 9.272C102.837 9.608 103 10.0453 103.016 10.584C103.021 10.6373 103.024 10.7493 103.024 10.92C103.024 11.0907 103.021 11.2027 103.016 11.256C103 11.7947 102.837 12.2347 102.528 12.576C102.224 12.912 101.794 13.08 101.24 13.08ZM101.24 12.616C101.618 12.616 101.922 12.496 102.152 12.256C102.386 12.0107 102.512 11.664 102.528 11.216C102.533 11.1627 102.536 11.064 102.536 10.92C102.536 10.776 102.533 10.6773 102.528 10.624C102.512 10.176 102.386 9.832 102.152 9.592C101.922 9.34667 101.618 9.224 101.24 9.224C100.861 9.224 100.554 9.34667 100.32 9.592C100.09 9.832 99.9678 10.176 99.9518 10.624L99.9438 10.92L99.9518 11.216C99.9678 11.664 100.09 12.0107 100.32 12.256C100.554 12.496 100.861 12.616 101.24 12.616ZM104.293 13C104.239 13 104.197 12.984 104.165 12.952C104.133 12.92 104.117 12.8773 104.117 12.824V9.016C104.117 8.96267 104.133 8.92 104.165 8.888C104.197 8.856 104.239 8.84 104.293 8.84H104.429C104.482 8.84 104.525 8.856 104.557 8.888C104.589 8.92 104.605 8.96267 104.605 9.016V9.392C104.765 9.184 104.946 9.02667 105.149 8.92C105.357 8.81333 105.623 8.76 105.949 8.76C106.471 8.76 106.874 8.928 107.157 9.264C107.439 9.59467 107.581 10.024 107.581 10.552V12.824C107.581 12.8773 107.565 12.92 107.533 12.952C107.501 12.984 107.458 13 107.405 13H107.269C107.215 13 107.173 12.984 107.141 12.952C107.109 12.92 107.093 12.8773 107.093 12.824V10.592C107.093 10.16 106.986 9.824 106.773 9.584C106.565 9.344 106.263 9.224 105.869 9.224C105.485 9.224 105.178 9.34667 104.949 9.592C104.719 9.832 104.605 10.1653 104.605 10.592V12.824C104.605 12.8773 104.589 12.92 104.557 12.952C104.525 12.984 104.482 13 104.429 13H104.293ZM110.38 13.08C109.873 13.08 109.465 12.9147 109.156 12.584C108.846 12.248 108.67 11.8 108.628 11.24L108.62 10.92L108.628 10.6C108.67 10.0453 108.844 9.6 109.148 9.264C109.457 8.928 109.868 8.76 110.38 8.76C110.934 8.76 111.366 8.944 111.676 9.312C111.99 9.68 112.148 10.184 112.148 10.824V10.944C112.148 10.9973 112.129 11.04 112.092 11.072C112.06 11.104 112.017 11.12 111.964 11.12H109.116V11.2C109.126 11.4507 109.182 11.6853 109.284 11.904C109.39 12.1173 109.537 12.2907 109.724 12.424C109.91 12.552 110.129 12.616 110.38 12.616C110.673 12.616 110.91 12.56 111.092 12.448C111.278 12.3307 111.412 12.2133 111.492 12.096C111.54 12.032 111.574 11.992 111.596 11.976C111.622 11.96 111.668 11.952 111.732 11.952H111.86C111.908 11.952 111.948 11.9653 111.98 11.992C112.012 12.0187 112.028 12.0533 112.028 12.096C112.028 12.208 111.956 12.344 111.812 12.504C111.673 12.6587 111.478 12.7947 111.228 12.912C110.977 13.024 110.694 13.08 110.38 13.08ZM111.66 10.672V10.64C111.66 10.2293 111.542 9.89067 111.308 9.624C111.078 9.35733 110.769 9.224 110.38 9.224C109.99 9.224 109.681 9.35733 109.452 9.624C109.228 9.89067 109.116 10.2293 109.116 10.64V10.672H111.66ZM114.523 13.08C114.176 13.08 113.883 13.0213 113.643 12.904C113.408 12.7867 113.229 12.6533 113.107 12.504C112.989 12.3547 112.931 12.2347 112.931 12.144C112.931 12.096 112.949 12.0587 112.987 12.032C113.024 12 113.064 11.984 113.107 11.984H113.227C113.264 11.984 113.293 11.992 113.315 12.008C113.341 12.0187 113.371 12.0453 113.403 12.088C113.52 12.2533 113.661 12.384 113.827 12.48C113.997 12.5707 114.229 12.616 114.523 12.616C114.853 12.616 115.12 12.5547 115.323 12.432C115.525 12.304 115.627 12.1227 115.627 11.888C115.627 11.744 115.584 11.6267 115.499 11.536C115.419 11.4453 115.285 11.368 115.099 11.304C114.917 11.2347 114.645 11.1573 114.283 11.072C113.808 10.9653 113.483 10.8187 113.307 10.632C113.136 10.4453 113.051 10.208 113.051 9.92C113.051 9.72267 113.104 9.536 113.211 9.36C113.323 9.184 113.485 9.04 113.699 8.928C113.917 8.816 114.179 8.76 114.483 8.76C114.803 8.76 115.072 8.816 115.291 8.928C115.515 9.03467 115.68 9.16 115.787 9.304C115.899 9.448 115.955 9.56533 115.955 9.656C115.955 9.704 115.936 9.744 115.899 9.776C115.867 9.80267 115.827 9.816 115.779 9.816H115.659C115.584 9.816 115.525 9.78133 115.483 9.712C115.376 9.552 115.253 9.432 115.115 9.352C114.981 9.26667 114.771 9.224 114.483 9.224C114.173 9.224 113.939 9.288 113.779 9.416C113.619 9.544 113.539 9.712 113.539 9.92C113.539 10.048 113.571 10.1547 113.635 10.24C113.699 10.3253 113.819 10.4053 113.995 10.48C114.171 10.5493 114.427 10.6213 114.763 10.696C115.259 10.808 115.608 10.9573 115.811 11.144C116.013 11.3307 116.115 11.5787 116.115 11.888C116.115 12.1067 116.053 12.3067 115.931 12.488C115.808 12.6693 115.627 12.8133 115.387 12.92C115.147 13.0267 114.859 13.08 114.523 13.08Z" fill="white"/>
<path d="M301.336 20C301.294 20 301.256 19.984 301.224 19.952C301.192 19.92 301.176 19.8827 301.176 19.84L301.192 19.752L303.216 14.56C303.259 14.4533 303.336 14.4 303.448 14.4H303.72C303.832 14.4 303.91 14.4533 303.952 14.56L305.976 19.752L305.992 19.84C305.992 19.8827 305.976 19.92 305.944 19.952C305.912 19.984 305.875 20 305.832 20H305.672C305.624 20 305.584 19.9867 305.552 19.96C305.526 19.9333 305.507 19.9067 305.496 19.88L305 18.6H302.168L301.672 19.88C301.662 19.9067 301.64 19.9333 301.608 19.96C301.582 19.9867 301.544 20 301.496 20H301.336ZM304.808 18.12L303.584 14.968L302.36 18.12H304.808ZM308.293 20.08C307.717 20.08 307.29 19.8933 307.013 19.52C306.741 19.1413 306.597 18.6827 306.581 18.144L306.573 17.92L306.581 17.696C306.597 17.1573 306.741 16.7013 307.013 16.328C307.29 15.9493 307.717 15.76 308.293 15.76C308.874 15.76 309.322 15.9707 309.637 16.392V14.496C309.637 14.4427 309.653 14.4 309.685 14.368C309.717 14.336 309.759 14.32 309.813 14.32H309.949C310.002 14.32 310.045 14.336 310.077 14.368C310.109 14.4 310.125 14.4427 310.125 14.496V19.824C310.125 19.8773 310.109 19.92 310.077 19.952C310.045 19.984 310.002 20 309.949 20H309.813C309.759 20 309.717 19.984 309.685 19.952C309.653 19.92 309.637 19.8773 309.637 19.824V19.448C309.327 19.8693 308.879 20.08 308.293 20.08ZM308.341 19.616C308.762 19.616 309.079 19.4773 309.293 19.2C309.506 18.9173 309.621 18.5867 309.637 18.208C309.642 18.1547 309.645 18.0507 309.645 17.896C309.645 17.7413 309.642 17.6373 309.637 17.584C309.631 17.3547 309.581 17.1387 309.485 16.936C309.389 16.728 309.245 16.5573 309.053 16.424C308.861 16.2907 308.623 16.224 308.341 16.224C307.909 16.224 307.591 16.3627 307.389 16.64C307.191 16.912 307.085 17.264 307.069 17.696L307.061 17.92C307.061 18.416 307.157 18.824 307.349 19.144C307.541 19.4587 307.871 19.616 308.341 19.616ZM311.605 20C311.552 20 311.509 19.984 311.477 19.952C311.445 19.92 311.429 19.8773 311.429 19.824V16.024C311.429 15.9707 311.445 15.928 311.477 15.896C311.509 15.8587 311.552 15.84 311.605 15.84H311.733C311.787 15.84 311.829 15.8587 311.861 15.896C311.899 15.928 311.917 15.9707 311.917 16.024V16.392C312.109 16.024 312.472 15.84 313.005 15.84H313.301C313.355 15.84 313.397 15.856 313.429 15.888C313.461 15.92 313.477 15.9627 313.477 16.016V16.128C313.477 16.1813 313.461 16.224 313.429 16.256C313.397 16.288 313.355 16.304 313.301 16.304H312.957C312.637 16.304 312.384 16.3973 312.197 16.584C312.011 16.7707 311.917 17.024 311.917 17.344V19.824C311.917 19.8773 311.899 19.92 311.861 19.952C311.829 19.984 311.787 20 311.733 20H311.605ZM315.661 20.08C315.154 20.08 314.746 19.9147 314.437 19.584C314.127 19.248 313.951 18.8 313.909 18.24L313.901 17.92L313.909 17.6C313.951 17.0453 314.125 16.6 314.429 16.264C314.738 15.928 315.149 15.76 315.661 15.76C316.215 15.76 316.647 15.944 316.957 16.312C317.271 16.68 317.429 17.184 317.429 17.824V17.944C317.429 17.9973 317.41 18.04 317.373 18.072C317.341 18.104 317.298 18.12 317.245 18.12H314.397V18.2C314.407 18.4507 314.463 18.6853 314.565 18.904C314.671 19.1173 314.818 19.2907 315.005 19.424C315.191 19.552 315.41 19.616 315.661 19.616C315.954 19.616 316.191 19.56 316.373 19.448C316.559 19.3307 316.693 19.2133 316.773 19.096C316.821 19.032 316.855 18.992 316.877 18.976C316.903 18.96 316.949 18.952 317.013 18.952H317.141C317.189 18.952 317.229 18.9653 317.261 18.992C317.293 19.0187 317.309 19.0533 317.309 19.096C317.309 19.208 317.237 19.344 317.093 19.504C316.954 19.6587 316.759 19.7947 316.509 19.912C316.258 20.024 315.975 20.08 315.661 20.08ZM316.941 17.672V17.64C316.941 17.2293 316.823 16.8907 316.589 16.624C316.359 16.3573 316.05 16.224 315.661 16.224C315.271 16.224 314.962 16.3573 314.733 16.624C314.509 16.8907 314.397 17.2293 314.397 17.64V17.672H316.941ZM319.804 20.08C319.457 20.08 319.164 20.0213 318.924 19.904C318.689 19.7867 318.511 19.6533 318.388 19.504C318.271 19.3547 318.212 19.2347 318.212 19.144C318.212 19.096 318.231 19.0587 318.268 19.032C318.305 19 318.345 18.984 318.388 18.984H318.508C318.545 18.984 318.575 18.992 318.596 19.008C318.623 19.0187 318.652 19.0453 318.684 19.088C318.801 19.2533 318.943 19.384 319.108 19.48C319.279 19.5707 319.511 19.616 319.804 19.616C320.135 19.616 320.401 19.5547 320.604 19.432C320.807 19.304 320.908 19.1227 320.908 18.888C320.908 18.744 320.865 18.6267 320.78 18.536C320.7 18.4453 320.567 18.368 320.38 18.304C320.199 18.2347 319.927 18.1573 319.564 18.072C319.089 17.9653 318.764 17.8187 318.588 17.632C318.417 17.4453 318.332 17.208 318.332 16.92C318.332 16.7227 318.385 16.536 318.492 16.36C318.604 16.184 318.767 16.04 318.98 15.928C319.199 15.816 319.46 15.76 319.764 15.76C320.084 15.76 320.353 15.816 320.572 15.928C320.796 16.0347 320.961 16.16 321.068 16.304C321.18 16.448 321.236 16.5653 321.236 16.656C321.236 16.704 321.217 16.744 321.18 16.776C321.148 16.8027 321.108 16.816 321.06 16.816H320.94C320.865 16.816 320.807 16.7813 320.764 16.712C320.657 16.552 320.535 16.432 320.396 16.352C320.263 16.2667 320.052 16.224 319.764 16.224C319.455 16.224 319.22 16.288 319.06 16.416C318.9 16.544 318.82 16.712 318.82 16.92C318.82 17.048 318.852 17.1547 318.916 17.24C318.98 17.3253 319.1 17.4053 319.276 17.48C319.452 17.5493 319.708 17.6213 320.044 17.696C320.54 17.808 320.889 17.9573 321.092 18.144C321.295 18.3307 321.396 18.5787 321.396 18.888C321.396 19.1067 321.335 19.3067 321.212 19.488C321.089 19.6693 320.908 19.8133 320.668 19.92C320.428 20.0267 320.14 20.08 319.804 20.08ZM323.741 20.08C323.395 20.08 323.101 20.0213 322.861 19.904C322.627 19.7867 322.448 19.6533 322.325 19.504C322.208 19.3547 322.149 19.2347 322.149 19.144C322.149 19.096 322.168 19.0587 322.205 19.032C322.243 19 322.283 18.984 322.325 18.984H322.445C322.483 18.984 322.512 18.992 322.533 19.008C322.56 19.0187 322.589 19.0453 322.621 19.088C322.739 19.2533 322.88 19.384 323.045 19.48C323.216 19.5707 323.448 19.616 323.741 19.616C324.072 19.616 324.339 19.5547 324.541 19.432C324.744 19.304 324.845 19.1227 324.845 18.888C324.845 18.744 324.803 18.6267 324.717 18.536C324.637 18.4453 324.504 18.368 324.317 18.304C324.136 18.2347 323.864 18.1573 323.501 18.072C323.027 17.9653 322.701 17.8187 322.525 17.632C322.355 17.4453 322.269 17.208 322.269 16.92C322.269 16.7227 322.323 16.536 322.429 16.36C322.541 16.184 322.704 16.04 322.917 15.928C323.136 15.816 323.397 15.76 323.701 15.76C324.021 15.76 324.291 15.816 324.509 15.928C324.733 16.0347 324.899 16.16 325.005 16.304C325.117 16.448 325.173 16.5653 325.173 16.656C325.173 16.704 325.155 16.744 325.117 16.776C325.085 16.8027 325.045 16.816 324.997 16.816H324.877C324.803 16.816 324.744 16.7813 324.701 16.712C324.595 16.552 324.472 16.432 324.333 16.352C324.2 16.2667 323.989 16.224 323.701 16.224C323.392 16.224 323.157 16.288 322.997 16.416C322.837 16.544 322.757 16.712 322.757 16.92C322.757 17.048 322.789 17.1547 322.853 17.24C322.917 17.3253 323.037 17.4053 323.213 17.48C323.389 17.5493 323.645 17.6213 323.981 17.696C324.477 17.808 324.827 17.9573 325.029 18.144C325.232 18.3307 325.333 18.5787 325.333 18.888C325.333 19.1067 325.272 19.3067 325.149 19.488C325.027 19.6693 324.845 19.8133 324.605 19.92C324.365 20.0267 324.077 20.08 323.741 20.08ZM327.903 20.08C327.396 20.08 326.988 19.9147 326.679 19.584C326.37 19.248 326.194 18.8 326.151 18.24L326.143 17.92L326.151 17.6C326.194 17.0453 326.367 16.6 326.671 16.264C326.98 15.928 327.391 15.76 327.903 15.76C328.458 15.76 328.89 15.944 329.199 16.312C329.514 16.68 329.671 17.184 329.671 17.824V17.944C329.671 17.9973 329.652 18.04 329.615 18.072C329.583 18.104 329.54 18.12 329.487 18.12H326.639V18.2C326.65 18.4507 326.706 18.6853 326.807 18.904C326.914 19.1173 327.06 19.2907 327.247 19.424C327.434 19.552 327.652 19.616 327.903 19.616C328.196 19.616 328.434 19.56 328.615 19.448C328.802 19.3307 328.935 19.2133 329.015 19.096C329.063 19.032 329.098 18.992 329.119 18.976C329.146 18.96 329.191 18.952 329.255 18.952H329.383C329.431 18.952 329.471 18.9653 329.503 18.992C329.535 19.0187 329.551 19.0533 329.551 19.096C329.551 19.208 329.479 19.344 329.335 19.504C329.196 19.6587 329.002 19.7947 328.751 19.912C328.5 20.024 328.218 20.08 327.903 20.08ZM329.183 17.672V17.64C329.183 17.2293 329.066 16.8907 328.831 16.624C328.602 16.3573 328.292 16.224 327.903 16.224C327.514 16.224 327.204 16.3573 326.975 16.624C326.751 16.8907 326.639 17.2293 326.639 17.64V17.672H329.183ZM332.046 20.08C331.699 20.08 331.406 20.0213 331.166 19.904C330.931 19.7867 330.753 19.6533 330.63 19.504C330.513 19.3547 330.454 19.2347 330.454 19.144C330.454 19.096 330.473 19.0587 330.51 19.032C330.547 19 330.587 18.984 330.63 18.984H330.75C330.787 18.984 330.817 18.992 330.838 19.008C330.865 19.0187 330.894 19.0453 330.926 19.088C331.043 19.2533 331.185 19.384 331.35 19.48C331.521 19.5707 331.753 19.616 332.046 19.616C332.377 19.616 332.643 19.5547 332.846 19.432C333.049 19.304 333.15 19.1227 333.15 18.888C333.15 18.744 333.107 18.6267 333.022 18.536C332.942 18.4453 332.809 18.368 332.622 18.304C332.441 18.2347 332.169 18.1573 331.806 18.072C331.331 17.9653 331.006 17.8187 330.83 17.632C330.659 17.4453 330.574 17.208 330.574 16.92C330.574 16.7227 330.627 16.536 330.734 16.36C330.846 16.184 331.009 16.04 331.222 15.928C331.441 15.816 331.702 15.76 332.006 15.76C332.326 15.76 332.595 15.816 332.814 15.928C333.038 16.0347 333.203 16.16 333.31 16.304C333.422 16.448 333.478 16.5653 333.478 16.656C333.478 16.704 333.459 16.744 333.422 16.776C333.39 16.8027 333.35 16.816 333.302 16.816H333.182C333.107 16.816 333.049 16.7813 333.006 16.712C332.899 16.552 332.777 16.432 332.638 16.352C332.505 16.2667 332.294 16.224 332.006 16.224C331.697 16.224 331.462 16.288 331.302 16.416C331.142 16.544 331.062 16.712 331.062 16.92C331.062 17.048 331.094 17.1547 331.158 17.24C331.222 17.3253 331.342 17.4053 331.518 17.48C331.694 17.5493 331.95 17.6213 332.286 17.696C332.782 17.808 333.131 17.9573 333.334 18.144C333.537 18.3307 333.638 18.5787 333.638 18.888C333.638 19.1067 333.577 19.3067 333.454 19.488C333.331 19.6693 333.15 19.8133 332.91 19.92C332.67 20.0267 332.382 20.08 332.046 20.08ZM303.148 30.52C303.095 30.52 303.052 30.504 303.02 30.472C302.988 30.44 302.972 30.3973 302.972 30.344V25.016C302.972 24.9627 302.988 24.92 303.02 24.888C303.052 24.856 303.095 24.84 303.148 24.84H303.284C303.338 24.84 303.38 24.856 303.412 24.888C303.444 24.92 303.46 24.9627 303.46 25.016V25.392C303.77 24.9707 304.218 24.76 304.804 24.76C305.38 24.76 305.804 24.944 306.076 25.312C306.354 25.6747 306.5 26.1227 306.516 26.656C306.522 26.7093 306.524 26.7973 306.524 26.92C306.524 27.0427 306.522 27.1307 306.516 27.184C306.5 27.7173 306.354 28.168 306.076 28.536C305.804 28.8987 305.38 29.08 304.804 29.08C304.223 29.08 303.775 28.8693 303.46 28.448V30.344C303.46 30.3973 303.444 30.44 303.412 30.472C303.38 30.504 303.338 30.52 303.284 30.52H303.148ZM304.756 28.616C305.188 28.616 305.503 28.48 305.7 28.208C305.903 27.9307 306.012 27.576 306.028 27.144C306.034 27.0907 306.036 27.016 306.036 26.92C306.036 26.424 305.94 26.0187 305.748 25.704C305.556 25.384 305.226 25.224 304.756 25.224C304.335 25.224 304.018 25.3653 303.804 25.648C303.591 25.9253 303.476 26.2533 303.46 26.632L303.452 26.944L303.46 27.256C303.466 27.4853 303.516 27.704 303.612 27.912C303.708 28.1147 303.852 28.2827 304.044 28.416C304.236 28.5493 304.474 28.616 304.756 28.616ZM307.789 29C307.736 29 307.693 28.984 307.661 28.952C307.629 28.92 307.613 28.8773 307.613 28.824V25.024C307.613 24.9707 307.629 24.928 307.661 24.896C307.693 24.8587 307.736 24.84 307.789 24.84H307.917C307.97 24.84 308.013 24.8587 308.045 24.896C308.082 24.928 308.101 24.9707 308.101 25.024V25.392C308.293 25.024 308.656 24.84 309.189 24.84H309.485C309.538 24.84 309.581 24.856 309.613 24.888C309.645 24.92 309.661 24.9627 309.661 25.016V25.128C309.661 25.1813 309.645 25.224 309.613 25.256C309.581 25.288 309.538 25.304 309.485 25.304H309.141C308.821 25.304 308.568 25.3973 308.381 25.584C308.194 25.7707 308.101 26.024 308.101 26.344V28.824C308.101 28.8773 308.082 28.92 308.045 28.952C308.013 28.984 307.97 29 307.917 29H307.789ZM311.844 29.08C311.338 29.08 310.93 28.9147 310.62 28.584C310.311 28.248 310.135 27.8 310.092 27.24L310.084 26.92L310.092 26.6C310.135 26.0453 310.308 25.6 310.612 25.264C310.922 24.928 311.332 24.76 311.844 24.76C312.399 24.76 312.831 24.944 313.14 25.312C313.455 25.68 313.612 26.184 313.612 26.824V26.944C313.612 26.9973 313.594 27.04 313.556 27.072C313.524 27.104 313.482 27.12 313.428 27.12H310.58V27.2C310.591 27.4507 310.647 27.6853 310.748 27.904C310.855 28.1173 311.002 28.2907 311.188 28.424C311.375 28.552 311.594 28.616 311.844 28.616C312.138 28.616 312.375 28.56 312.556 28.448C312.743 28.3307 312.876 28.2133 312.956 28.096C313.004 28.032 313.039 27.992 313.06 27.976C313.087 27.96 313.132 27.952 313.196 27.952H313.324C313.372 27.952 313.412 27.9653 313.444 27.992C313.476 28.0187 313.492 28.0533 313.492 28.096C313.492 28.208 313.42 28.344 313.276 28.504C313.138 28.6587 312.943 28.7947 312.692 28.912C312.442 29.024 312.159 29.08 311.844 29.08ZM313.124 26.672V26.64C313.124 26.2293 313.007 25.8907 312.772 25.624C312.543 25.3573 312.234 25.224 311.844 25.224C311.455 25.224 311.146 25.3573 310.916 25.624C310.692 25.8907 310.58 26.2293 310.58 26.64V26.672H313.124ZM311.724 24.24C311.639 24.24 311.596 24.1973 311.596 24.112C311.596 24.0693 311.61 24.0347 311.636 24.008L312.188 23.344C312.236 23.2853 312.279 23.248 312.316 23.232C312.354 23.2107 312.41 23.2 312.484 23.2H312.812C312.914 23.2 312.964 23.2507 312.964 23.352C312.964 23.3893 312.951 23.4213 312.924 23.448L312.052 24.16C312.01 24.192 311.972 24.2133 311.94 24.224C311.908 24.2347 311.863 24.24 311.804 24.24H311.724ZM316.244 29.08C315.689 29.08 315.26 28.92 314.956 28.6C314.652 28.2747 314.492 27.8213 314.476 27.24L314.468 26.92L314.476 26.6C314.492 26.0187 314.652 25.568 314.956 25.248C315.26 24.9227 315.689 24.76 316.244 24.76C316.596 24.76 316.894 24.824 317.14 24.952C317.39 25.0747 317.577 25.2347 317.7 25.432C317.822 25.624 317.889 25.824 317.9 26.032C317.905 26.08 317.889 26.1227 317.852 26.16C317.814 26.192 317.772 26.208 317.724 26.208H317.612C317.558 26.208 317.518 26.1973 317.492 26.176C317.47 26.1493 317.446 26.104 317.42 26.04C317.313 25.7467 317.164 25.5387 316.972 25.416C316.78 25.288 316.537 25.224 316.244 25.224C315.86 25.224 315.553 25.3413 315.324 25.576C315.1 25.8053 314.98 26.16 314.964 26.64L314.956 26.92L314.964 27.2C314.98 27.68 315.1 28.0373 315.324 28.272C315.553 28.5013 315.86 28.616 316.244 28.616C316.537 28.616 316.78 28.5547 316.972 28.432C317.164 28.304 317.313 28.0933 317.42 27.8C317.446 27.736 317.47 27.6933 317.492 27.672C317.518 27.6453 317.558 27.632 317.612 27.632H317.724C317.772 27.632 317.814 27.6507 317.852 27.688C317.889 27.72 317.905 27.76 317.9 27.808C317.889 28.016 317.822 28.2187 317.7 28.416C317.577 28.608 317.39 28.768 317.14 28.896C316.894 29.0187 316.596 29.08 316.244 29.08ZM319.045 23.984C318.991 23.984 318.949 23.968 318.917 23.936C318.885 23.904 318.869 23.8613 318.869 23.808V23.504C318.869 23.4507 318.885 23.408 318.917 23.376C318.949 23.3387 318.991 23.32 319.045 23.32H319.349C319.402 23.32 319.445 23.3387 319.477 23.376C319.514 23.408 319.533 23.4507 319.533 23.504V23.808C319.533 23.8613 319.514 23.904 319.477 23.936C319.445 23.968 319.402 23.984 319.349 23.984H319.045ZM319.133 29C319.079 29 319.037 28.984 319.005 28.952C318.973 28.92 318.957 28.8773 318.957 28.824V25.016C318.957 24.9627 318.973 24.92 319.005 24.888C319.037 24.856 319.079 24.84 319.133 24.84H319.269C319.322 24.84 319.365 24.856 319.397 24.888C319.429 24.92 319.445 24.9627 319.445 25.016V28.824C319.445 28.8773 319.429 28.92 319.397 28.952C319.365 28.984 319.322 29 319.269 29H319.133ZM322.314 29.08C321.759 29.08 321.33 28.92 321.026 28.6C320.722 28.2747 320.562 27.8213 320.546 27.24L320.538 26.92L320.546 26.6C320.562 26.0187 320.722 25.568 321.026 25.248C321.33 24.9227 321.759 24.76 322.314 24.76C322.666 24.76 322.965 24.824 323.21 24.952C323.461 25.0747 323.647 25.2347 323.77 25.432C323.893 25.624 323.959 25.824 323.97 26.032C323.975 26.08 323.959 26.1227 323.922 26.16C323.885 26.192 323.842 26.208 323.794 26.208H323.682C323.629 26.208 323.589 26.1973 323.562 26.176C323.541 26.1493 323.517 26.104 323.49 26.04C323.383 25.7467 323.234 25.5387 323.042 25.416C322.85 25.288 322.607 25.224 322.314 25.224C321.93 25.224 321.623 25.3413 321.394 25.576C321.17 25.8053 321.05 26.16 321.034 26.64L321.026 26.92L321.034 27.2C321.05 27.68 321.17 28.0373 321.394 28.272C321.623 28.5013 321.93 28.616 322.314 28.616C322.607 28.616 322.85 28.5547 323.042 28.432C323.234 28.304 323.383 28.0933 323.49 27.8C323.517 27.736 323.541 27.6933 323.562 27.672C323.589 27.6453 323.629 27.632 323.682 27.632H323.794C323.842 27.632 323.885 27.6507 323.922 27.688C323.959 27.72 323.975 27.76 323.97 27.808C323.959 28.016 323.893 28.2187 323.77 28.416C323.647 28.608 323.461 28.768 323.21 28.896C322.965 29.0187 322.666 29.08 322.314 29.08ZM326.571 29.08C326.064 29.08 325.656 28.9147 325.347 28.584C325.038 28.248 324.862 27.8 324.819 27.24L324.811 26.92L324.819 26.6C324.862 26.0453 325.035 25.6 325.339 25.264C325.648 24.928 326.059 24.76 326.571 24.76C327.126 24.76 327.558 24.944 327.867 25.312C328.182 25.68 328.339 26.184 328.339 26.824V26.944C328.339 26.9973 328.32 27.04 328.283 27.072C328.251 27.104 328.208 27.12 328.155 27.12H325.307V27.2C325.318 27.4507 325.374 27.6853 325.475 27.904C325.582 28.1173 325.728 28.2907 325.915 28.424C326.102 28.552 326.32 28.616 326.571 28.616C326.864 28.616 327.102 28.56 327.283 28.448C327.47 28.3307 327.603 28.2133 327.683 28.096C327.731 28.032 327.766 27.992 327.787 27.976C327.814 27.96 327.859 27.952 327.923 27.952H328.051C328.099 27.952 328.139 27.9653 328.171 27.992C328.203 28.0187 328.219 28.0533 328.219 28.096C328.219 28.208 328.147 28.344 328.003 28.504C327.864 28.6587 327.67 28.7947 327.419 28.912C327.168 29.024 326.886 29.08 326.571 29.08ZM327.851 26.672V26.64C327.851 26.2293 327.734 25.8907 327.499 25.624C327.27 25.3573 326.96 25.224 326.571 25.224C326.182 25.224 325.872 25.3573 325.643 25.624C325.419 25.8907 325.307 26.2293 325.307 26.64V26.672H327.851ZM330.714 29.08C330.367 29.08 330.074 29.0213 329.834 28.904C329.599 28.7867 329.421 28.6533 329.298 28.504C329.181 28.3547 329.122 28.2347 329.122 28.144C329.122 28.096 329.141 28.0587 329.178 28.032C329.215 28 329.255 27.984 329.298 27.984H329.418C329.455 27.984 329.485 27.992 329.506 28.008C329.533 28.0187 329.562 28.0453 329.594 28.088C329.711 28.2533 329.853 28.384 330.018 28.48C330.189 28.5707 330.421 28.616 330.714 28.616C331.045 28.616 331.311 28.5547 331.514 28.432C331.717 28.304 331.818 28.1227 331.818 27.888C331.818 27.744 331.775 27.6267 331.69 27.536C331.61 27.4453 331.477 27.368 331.29 27.304C331.109 27.2347 330.837 27.1573 330.474 27.072C329.999 26.9653 329.674 26.8187 329.498 26.632C329.327 26.4453 329.242 26.208 329.242 25.92C329.242 25.7227 329.295 25.536 329.402 25.36C329.514 25.184 329.677 25.04 329.89 24.928C330.109 24.816 330.37 24.76 330.674 24.76C330.994 24.76 331.263 24.816 331.482 24.928C331.706 25.0347 331.871 25.16 331.978 25.304C332.09 25.448 332.146 25.5653 332.146 25.656C332.146 25.704 332.127 25.744 332.09 25.776C332.058 25.8027 332.018 25.816 331.97 25.816H331.85C331.775 25.816 331.717 25.7813 331.674 25.712C331.567 25.552 331.445 25.432 331.306 25.352C331.173 25.2667 330.962 25.224 330.674 25.224C330.365 25.224 330.13 25.288 329.97 25.416C329.81 25.544 329.73 25.712 329.73 25.92C329.73 26.048 329.762 26.1547 329.826 26.24C329.89 26.3253 330.01 26.4053 330.186 26.48C330.362 26.5493 330.618 26.6213 330.954 26.696C331.45 26.808 331.799 26.9573 332.002 27.144C332.205 27.3307 332.306 27.5787 332.306 27.888C332.306 28.1067 332.245 28.3067 332.122 28.488C331.999 28.6693 331.818 28.8133 331.578 28.92C331.338 29.0267 331.05 29.08 330.714 29.08Z" fill="white"/>
<circle cx="317.5" cy="52.5" r="9.5" fill="#5E02D4"/>
<line x1="91.5" y1="37" x2="91.5" y2="62" stroke="white"/>
<line x1="177.5" y1="37" x2="177.5" y2="62" stroke="white"/>
<line x1="260.5" y1="37" x2="260.5" y2="62" stroke="white"/>
<path d="M87.248 33C87.1947 33 87.152 32.984 87.12 32.952C87.088 32.92 87.072 32.8773 87.072 32.824V31.56H84.432C84.3787 31.56 84.336 31.544 84.304 31.512C84.272 31.48 84.256 31.4373 84.256 31.384V31.256C84.256 31.176 84.2853 31.096 84.344 31.016L86.776 27.536C86.8027 27.4933 86.8427 27.4613 86.896 27.44C86.9493 27.4133 87.008 27.4 87.072 27.4H87.4C87.4533 27.4 87.496 27.416 87.528 27.448C87.56 27.48 87.576 27.5227 87.576 27.576V31.08H88.304C88.3573 31.08 88.4 31.096 88.432 31.128C88.464 31.16 88.48 31.2027 88.48 31.256V31.384C88.48 31.4373 88.464 31.48 88.432 31.512C88.4 31.544 88.3573 31.56 88.304 31.56H87.576V32.824C87.576 32.8773 87.56 32.92 87.528 32.952C87.496 32.984 87.4533 33 87.4 33H87.248ZM87.072 31.08V27.968L84.888 31.08H87.072ZM91.2218 33.08C90.5498 33.08 90.0645 32.8773 89.7658 32.472C89.4725 32.0667 89.3178 31.5333 89.3018 30.872L89.2938 30.208L89.3018 29.528C89.3178 28.8667 89.4725 28.3333 89.7658 27.928C90.0645 27.5227 90.5498 27.32 91.2218 27.32C91.8938 27.32 92.3765 27.5227 92.6698 27.928C92.9685 28.3333 93.1258 28.8667 93.1418 29.528C93.1471 29.6773 93.1498 29.904 93.1498 30.208C93.1498 30.5067 93.1471 30.728 93.1418 30.872C93.1258 31.5333 92.9685 32.0667 92.6698 32.472C92.3765 32.8773 91.8938 33.08 91.2218 33.08ZM91.2218 32.6C91.6805 32.6 92.0271 32.448 92.2618 32.144C92.5018 31.8347 92.6271 31.3973 92.6378 30.832C92.6431 30.6773 92.6458 30.464 92.6458 30.192C92.6458 29.92 92.6431 29.712 92.6378 29.568C92.6271 29.0133 92.5018 28.5813 92.2618 28.272C92.0271 27.9573 91.6805 27.8 91.2218 27.8C90.7631 27.8 90.4138 27.9573 90.1738 28.272C89.9391 28.5813 89.8165 29.0133 89.8058 29.568L89.7978 30.192L89.8058 30.832C89.8165 31.3973 89.9391 31.8347 90.1738 32.144C90.4138 32.448 90.7631 32.6 91.2218 32.6ZM95.2395 30.2C94.8982 30.2 94.6288 30.1093 94.4315 29.928C94.2395 29.7413 94.1355 29.4853 94.1195 29.16C94.1142 29.0693 94.1115 28.9547 94.1115 28.816C94.1115 28.6667 94.1142 28.544 94.1195 28.448C94.1355 28.112 94.2368 27.848 94.4235 27.656C94.6102 27.4587 94.8822 27.36 95.2395 27.36C95.5968 27.36 95.8688 27.4587 96.0555 27.656C96.2422 27.848 96.3435 28.112 96.3595 28.448C96.3702 28.64 96.3755 28.7627 96.3755 28.816C96.3755 28.864 96.3702 28.9787 96.3595 29.16C96.3435 29.4853 96.2368 29.7413 96.0395 29.928C95.8475 30.1093 95.5808 30.2 95.2395 30.2ZM94.5515 33C94.5035 33 94.4635 32.9867 94.4315 32.96C94.4048 32.928 94.3915 32.888 94.3915 32.84C94.3915 32.808 94.4022 32.7787 94.4235 32.752L98.3675 27.552C98.4102 27.4933 98.4475 27.4533 98.4795 27.432C98.5168 27.4107 98.5675 27.4 98.6315 27.4H98.7675C98.8155 27.4 98.8528 27.416 98.8795 27.448C98.9115 27.4747 98.9275 27.512 98.9275 27.56C98.9275 27.592 98.9168 27.6213 98.8955 27.648L94.9515 32.848C94.9088 32.9013 94.8688 32.9413 94.8315 32.968C94.7995 32.9893 94.7515 33 94.6875 33H94.5515ZM95.2395 29.792C95.4582 29.792 95.6182 29.728 95.7195 29.6C95.8208 29.472 95.8795 29.3173 95.8955 29.136C95.9062 28.9333 95.9115 28.8213 95.9115 28.8C95.9115 28.7627 95.9062 28.6533 95.8955 28.472C95.8848 28.2853 95.8262 28.128 95.7195 28C95.6182 27.872 95.4582 27.808 95.2395 27.808C95.0208 27.808 94.8582 27.872 94.7515 28C94.6502 28.128 94.5942 28.2853 94.5835 28.472C94.5782 28.5627 94.5755 28.672 94.5755 28.8C94.5755 28.9227 94.5782 29.0347 94.5835 29.136C94.5995 29.3173 94.6582 29.472 94.7595 29.6C94.8608 29.728 95.0208 29.792 95.2395 29.792ZM98.0635 33.048C97.7222 33.048 97.4528 32.952 97.2555 32.76C97.0635 32.5627 96.9595 32.2987 96.9435 31.968C96.9382 31.8773 96.9355 31.7627 96.9355 31.624C96.9355 31.4747 96.9382 31.352 96.9435 31.256C96.9595 30.92 97.0608 30.656 97.2475 30.464C97.4342 30.2667 97.7062 30.168 98.0635 30.168C98.4208 30.168 98.6928 30.2667 98.8795 30.464C99.0662 30.656 99.1675 30.92 99.1835 31.256C99.1942 31.448 99.1995 31.5707 99.1995 31.624C99.1995 31.672 99.1942 31.7867 99.1835 31.968C99.1675 32.2987 99.0608 32.5627 98.8635 32.76C98.6715 32.952 98.4048 33.048 98.0635 33.048ZM98.0635 32.6C98.2822 32.6 98.4422 32.536 98.5435 32.408C98.6448 32.28 98.7035 32.1253 98.7195 31.944C98.7302 31.7413 98.7355 31.6293 98.7355 31.608C98.7355 31.5707 98.7302 31.4613 98.7195 31.28C98.7088 31.0933 98.6502 30.936 98.5435 30.808C98.4422 30.68 98.2822 30.616 98.0635 30.616C97.8448 30.616 97.6822 30.68 97.5755 30.808C97.4742 30.936 97.4182 31.0933 97.4075 31.28C97.4022 31.3707 97.3995 31.48 97.3995 31.608C97.3995 31.7307 97.4022 31.8427 97.4075 31.944C97.4235 32.1253 97.4822 32.28 97.5835 32.408C97.6848 32.536 97.8448 32.6 98.0635 32.6Z" fill="white"/>
<path d="M171.224 34C171.176 34 171.136 33.984 171.104 33.952C171.077 33.9147 171.064 33.872 171.064 33.824L171.08 33.752L173.136 28.88H170.408C170.355 28.88 170.312 28.864 170.28 28.832C170.248 28.8 170.232 28.7573 170.232 28.704V28.584C170.232 28.5307 170.248 28.488 170.28 28.456C170.312 28.4187 170.355 28.4 170.408 28.4H173.496C173.555 28.4 173.6 28.416 173.632 28.448C173.664 28.48 173.68 28.5253 173.68 28.584V28.704C173.68 28.8053 173.661 28.904 173.624 29L171.6 33.8C171.573 33.864 171.544 33.9147 171.512 33.952C171.485 33.984 171.445 34 171.392 34H171.224ZM176.362 34.08C175.69 34.08 175.205 33.8773 174.906 33.472C174.613 33.0667 174.458 32.5333 174.442 31.872L174.434 31.208L174.442 30.528C174.458 29.8667 174.613 29.3333 174.906 28.928C175.205 28.5227 175.69 28.32 176.362 28.32C177.034 28.32 177.517 28.5227 177.81 28.928C178.109 29.3333 178.266 29.8667 178.282 30.528C178.288 30.6773 178.29 30.904 178.29 31.208C178.29 31.5067 178.288 31.728 178.282 31.872C178.266 32.5333 178.109 33.0667 177.81 33.472C177.517 33.8773 177.034 34.08 176.362 34.08ZM176.362 33.6C176.821 33.6 177.168 33.448 177.402 33.144C177.642 32.8347 177.768 32.3973 177.778 31.832C177.784 31.6773 177.786 31.464 177.786 31.192C177.786 30.92 177.784 30.712 177.778 30.568C177.768 30.0133 177.642 29.5813 177.402 29.272C177.168 28.9573 176.821 28.8 176.362 28.8C175.904 28.8 175.554 28.9573 175.314 29.272C175.08 29.5813 174.957 30.0133 174.946 30.568L174.938 31.192L174.946 31.832C174.957 32.3973 175.08 32.8347 175.314 33.144C175.554 33.448 175.904 33.6 176.362 33.6ZM180.38 31.2C180.039 31.2 179.769 31.1093 179.572 30.928C179.38 30.7413 179.276 30.4853 179.26 30.16C179.255 30.0693 179.252 29.9547 179.252 29.816C179.252 29.6667 179.255 29.544 179.26 29.448C179.276 29.112 179.377 28.848 179.564 28.656C179.751 28.4587 180.023 28.36 180.38 28.36C180.737 28.36 181.009 28.4587 181.196 28.656C181.383 28.848 181.484 29.112 181.5 29.448C181.511 29.64 181.516 29.7627 181.516 29.816C181.516 29.864 181.511 29.9787 181.5 30.16C181.484 30.4853 181.377 30.7413 181.18 30.928C180.988 31.1093 180.721 31.2 180.38 31.2ZM179.692 34C179.644 34 179.604 33.9867 179.572 33.96C179.545 33.928 179.532 33.888 179.532 33.84C179.532 33.808 179.543 33.7787 179.564 33.752L183.508 28.552C183.551 28.4933 183.588 28.4533 183.62 28.432C183.657 28.4107 183.708 28.4 183.772 28.4H183.908C183.956 28.4 183.993 28.416 184.02 28.448C184.052 28.4747 184.068 28.512 184.068 28.56C184.068 28.592 184.057 28.6213 184.036 28.648L180.092 33.848C180.049 33.9013 180.009 33.9413 179.972 33.968C179.94 33.9893 179.892 34 179.828 34H179.692ZM180.38 30.792C180.599 30.792 180.759 30.728 180.86 30.6C180.961 30.472 181.02 30.3173 181.036 30.136C181.047 29.9333 181.052 29.8213 181.052 29.8C181.052 29.7627 181.047 29.6533 181.036 29.472C181.025 29.2853 180.967 29.128 180.86 29C180.759 28.872 180.599 28.808 180.38 28.808C180.161 28.808 179.999 28.872 179.892 29C179.791 29.128 179.735 29.2853 179.724 29.472C179.719 29.5627 179.716 29.672 179.716 29.8C179.716 29.9227 179.719 30.0347 179.724 30.136C179.74 30.3173 179.799 30.472 179.9 30.6C180.001 30.728 180.161 30.792 180.38 30.792ZM183.204 34.048C182.863 34.048 182.593 33.952 182.396 33.76C182.204 33.5627 182.1 33.2987 182.084 32.968C182.079 32.8773 182.076 32.7627 182.076 32.624C182.076 32.4747 182.079 32.352 182.084 32.256C182.1 31.92 182.201 31.656 182.388 31.464C182.575 31.2667 182.847 31.168 183.204 31.168C183.561 31.168 183.833 31.2667 184.02 31.464C184.207 31.656 184.308 31.92 184.324 32.256C184.335 32.448 184.34 32.5707 184.34 32.624C184.34 32.672 184.335 32.7867 184.324 32.968C184.308 33.2987 184.201 33.5627 184.004 33.76C183.812 33.952 183.545 34.048 183.204 34.048ZM183.204 33.6C183.423 33.6 183.583 33.536 183.684 33.408C183.785 33.28 183.844 33.1253 183.86 32.944C183.871 32.7413 183.876 32.6293 183.876 32.608C183.876 32.5707 183.871 32.4613 183.86 32.28C183.849 32.0933 183.791 31.936 183.684 31.808C183.583 31.68 183.423 31.616 183.204 31.616C182.985 31.616 182.823 31.68 182.716 31.808C182.615 31.936 182.559 32.0933 182.548 32.28C182.543 32.3707 182.54 32.48 182.54 32.608C182.54 32.7307 182.543 32.8427 182.548 32.944C182.564 33.1253 182.623 33.28 182.724 33.408C182.825 33.536 182.985 33.6 183.204 33.6Z" fill="white"/>
<path d="M254.208 33C254.155 33 254.112 32.984 254.08 32.952C254.048 32.92 254.032 32.8773 254.032 32.824V28.056L252.6 29.16C252.557 29.1867 252.52 29.2 252.488 29.2C252.435 29.2 252.389 29.176 252.352 29.128L252.264 29.016C252.237 28.9787 252.224 28.9413 252.224 28.904C252.224 28.8507 252.248 28.8053 252.296 28.768L254 27.456C254.053 27.4187 254.123 27.4 254.208 27.4H254.36C254.413 27.4 254.456 27.416 254.488 27.448C254.52 27.48 254.536 27.5227 254.536 27.576V32.824C254.536 32.8773 254.52 32.92 254.488 32.952C254.456 32.984 254.413 33 254.36 33H254.208ZM257.652 33.08C256.98 33.08 256.494 32.8773 256.196 32.472C255.902 32.0667 255.748 31.5333 255.732 30.872L255.724 30.208L255.732 29.528C255.748 28.8667 255.902 28.3333 256.196 27.928C256.494 27.5227 256.98 27.32 257.652 27.32C258.324 27.32 258.806 27.5227 259.1 27.928C259.398 28.3333 259.556 28.8667 259.572 29.528C259.577 29.6773 259.58 29.904 259.58 30.208C259.58 30.5067 259.577 30.728 259.572 30.872C259.556 31.5333 259.398 32.0667 259.1 32.472C258.806 32.8773 258.324 33.08 257.652 33.08ZM257.652 32.6C258.11 32.6 258.457 32.448 258.692 32.144C258.932 31.8347 259.057 31.3973 259.068 30.832C259.073 30.6773 259.076 30.464 259.076 30.192C259.076 29.92 259.073 29.712 259.068 29.568C259.057 29.0133 258.932 28.5813 258.692 28.272C258.457 27.9573 258.11 27.8 257.652 27.8C257.193 27.8 256.844 27.9573 256.604 28.272C256.369 28.5813 256.246 29.0133 256.236 29.568L256.228 30.192L256.236 30.832C256.246 31.3973 256.369 31.8347 256.604 32.144C256.844 32.448 257.193 32.6 257.652 32.6ZM262.581 33.08C261.909 33.08 261.424 32.8773 261.125 32.472C260.832 32.0667 260.677 31.5333 260.661 30.872L260.653 30.208L260.661 29.528C260.677 28.8667 260.832 28.3333 261.125 27.928C261.424 27.5227 261.909 27.32 262.581 27.32C263.253 27.32 263.736 27.5227 264.029 27.928C264.328 28.3333 264.485 28.8667 264.501 29.528C264.507 29.6773 264.509 29.904 264.509 30.208C264.509 30.5067 264.507 30.728 264.501 30.872C264.485 31.5333 264.328 32.0667 264.029 32.472C263.736 32.8773 263.253 33.08 262.581 33.08ZM262.581 32.6C263.04 32.6 263.387 32.448 263.621 32.144C263.861 31.8347 263.987 31.3973 263.997 30.832C264.003 30.6773 264.005 30.464 264.005 30.192C264.005 29.92 264.003 29.712 263.997 29.568C263.987 29.0133 263.861 28.5813 263.621 28.272C263.387 27.9573 263.04 27.8 262.581 27.8C262.123 27.8 261.773 27.9573 261.533 28.272C261.299 28.5813 261.176 29.0133 261.165 29.568L261.157 30.192L261.165 30.832C261.176 31.3973 261.299 31.8347 261.533 32.144C261.773 32.448 262.123 32.6 262.581 32.6ZM266.599 30.2C266.258 30.2 265.988 30.1093 265.791 29.928C265.599 29.7413 265.495 29.4853 265.479 29.16C265.474 29.0693 265.471 28.9547 265.471 28.816C265.471 28.6667 265.474 28.544 265.479 28.448C265.495 28.112 265.596 27.848 265.783 27.656C265.97 27.4587 266.242 27.36 266.599 27.36C266.956 27.36 267.228 27.4587 267.415 27.656C267.602 27.848 267.703 28.112 267.719 28.448C267.73 28.64 267.735 28.7627 267.735 28.816C267.735 28.864 267.73 28.9787 267.719 29.16C267.703 29.4853 267.596 29.7413 267.399 29.928C267.207 30.1093 266.94 30.2 266.599 30.2ZM265.911 33C265.863 33 265.823 32.9867 265.791 32.96C265.764 32.928 265.751 32.888 265.751 32.84C265.751 32.808 265.762 32.7787 265.783 32.752L269.727 27.552C269.77 27.4933 269.807 27.4533 269.839 27.432C269.876 27.4107 269.927 27.4 269.991 27.4H270.127C270.175 27.4 270.212 27.416 270.239 27.448C270.271 27.4747 270.287 27.512 270.287 27.56C270.287 27.592 270.276 27.6213 270.255 27.648L266.311 32.848C266.268 32.9013 266.228 32.9413 266.191 32.968C266.159 32.9893 266.111 33 266.047 33H265.911ZM266.599 29.792C266.818 29.792 266.978 29.728 267.079 29.6C267.18 29.472 267.239 29.3173 267.255 29.136C267.266 28.9333 267.271 28.8213 267.271 28.8C267.271 28.7627 267.266 28.6533 267.255 28.472C267.244 28.2853 267.186 28.128 267.079 28C266.978 27.872 266.818 27.808 266.599 27.808C266.38 27.808 266.218 27.872 266.111 28C266.01 28.128 265.954 28.2853 265.943 28.472C265.938 28.5627 265.935 28.672 265.935 28.8C265.935 28.9227 265.938 29.0347 265.943 29.136C265.959 29.3173 266.018 29.472 266.119 29.6C266.22 29.728 266.38 29.792 266.599 29.792ZM269.423 33.048C269.082 33.048 268.812 32.952 268.615 32.76C268.423 32.5627 268.319 32.2987 268.303 31.968C268.298 31.8773 268.295 31.7627 268.295 31.624C268.295 31.4747 268.298 31.352 268.303 31.256C268.319 30.92 268.42 30.656 268.607 30.464C268.794 30.2667 269.066 30.168 269.423 30.168C269.78 30.168 270.052 30.2667 270.239 30.464C270.426 30.656 270.527 30.92 270.543 31.256C270.554 31.448 270.559 31.5707 270.559 31.624C270.559 31.672 270.554 31.7867 270.543 31.968C270.527 32.2987 270.42 32.5627 270.223 32.76C270.031 32.952 269.764 33.048 269.423 33.048ZM269.423 32.6C269.642 32.6 269.802 32.536 269.903 32.408C270.004 32.28 270.063 32.1253 270.079 31.944C270.09 31.7413 270.095 31.6293 270.095 31.608C270.095 31.5707 270.09 31.4613 270.079 31.28C270.068 31.0933 270.01 30.936 269.903 30.808C269.802 30.68 269.642 30.616 269.423 30.616C269.204 30.616 269.042 30.68 268.935 30.808C268.834 30.936 268.778 31.0933 268.767 31.28C268.762 31.3707 268.759 31.48 268.759 31.608C268.759 31.7307 268.762 31.8427 268.767 31.944C268.783 32.1253 268.842 32.28 268.943 32.408C269.044 32.536 269.204 32.6 269.423 32.6Z" fill="white"/>
<path d="M2.208 33C2.15467 33 2.112 32.984 2.08 32.952C2.048 32.92 2.032 32.8773 2.032 32.824V28.056L0.6 29.16C0.557333 29.1867 0.52 29.2 0.488 29.2C0.434667 29.2 0.389333 29.176 0.352 29.128L0.264 29.016C0.237333 28.9787 0.224 28.9413 0.224 28.904C0.224 28.8507 0.248 28.8053 0.296 28.768L2 27.456C2.05333 27.4187 2.12267 27.4 2.208 27.4H2.36C2.41333 27.4 2.456 27.416 2.488 27.448C2.52 27.48 2.536 27.5227 2.536 27.576V32.824C2.536 32.8773 2.52 32.92 2.488 32.952C2.456 32.984 2.41333 33 2.36 33H2.208ZM5.6515 33.08C4.9795 33.08 4.49417 32.8773 4.1955 32.472C3.90217 32.0667 3.7475 31.5333 3.7315 30.872L3.7235 30.208L3.7315 29.528C3.7475 28.8667 3.90217 28.3333 4.1955 27.928C4.49417 27.5227 4.9795 27.32 5.6515 27.32C6.3235 27.32 6.80617 27.5227 7.0995 27.928C7.39817 28.3333 7.5555 28.8667 7.5715 29.528C7.57683 29.6773 7.5795 29.904 7.5795 30.208C7.5795 30.5067 7.57683 30.728 7.5715 30.872C7.5555 31.5333 7.39817 32.0667 7.0995 32.472C6.80617 32.8773 6.3235 33.08 5.6515 33.08ZM5.6515 32.6C6.11017 32.6 6.45683 32.448 6.6915 32.144C6.9315 31.8347 7.05683 31.3973 7.0675 30.832C7.07283 30.6773 7.0755 30.464 7.0755 30.192C7.0755 29.92 7.07283 29.712 7.0675 29.568C7.05683 29.0133 6.9315 28.5813 6.6915 28.272C6.45683 27.9573 6.11017 27.8 5.6515 27.8C5.19283 27.8 4.8435 27.9573 4.6035 28.272C4.36883 28.5813 4.24617 29.0133 4.2355 29.568L4.2275 30.192L4.2355 30.832C4.24617 31.3973 4.36883 31.8347 4.6035 32.144C4.8435 32.448 5.19283 32.6 5.6515 32.6ZM9.66919 30.2C9.32785 30.2 9.05852 30.1093 8.86119 29.928C8.66919 29.7413 8.56519 29.4853 8.54919 29.16C8.54385 29.0693 8.54119 28.9547 8.54119 28.816C8.54119 28.6667 8.54385 28.544 8.54919 28.448C8.56519 28.112 8.66652 27.848 8.85319 27.656C9.03985 27.4587 9.31185 27.36 9.66919 27.36C10.0265 27.36 10.2985 27.4587 10.4852 27.656C10.6719 27.848 10.7732 28.112 10.7892 28.448C10.7999 28.64 10.8052 28.7627 10.8052 28.816C10.8052 28.864 10.7999 28.9787 10.7892 29.16C10.7732 29.4853 10.6665 29.7413 10.4692 29.928C10.2772 30.1093 10.0105 30.2 9.66919 30.2ZM8.98119 33C8.93319 33 8.89319 32.9867 8.86119 32.96C8.83452 32.928 8.82119 32.888 8.82119 32.84C8.82119 32.808 8.83185 32.7787 8.85319 32.752L12.7972 27.552C12.8399 27.4933 12.8772 27.4533 12.9092 27.432C12.9465 27.4107 12.9972 27.4 13.0612 27.4H13.1972C13.2452 27.4 13.2825 27.416 13.3092 27.448C13.3412 27.4747 13.3572 27.512 13.3572 27.56C13.3572 27.592 13.3465 27.6213 13.3252 27.648L9.38119 32.848C9.33852 32.9013 9.29852 32.9413 9.26119 32.968C9.22919 32.9893 9.18119 33 9.11719 33H8.98119ZM9.66919 29.792C9.88785 29.792 10.0479 29.728 10.1492 29.6C10.2505 29.472 10.3092 29.3173 10.3252 29.136C10.3359 28.9333 10.3412 28.8213 10.3412 28.8C10.3412 28.7627 10.3359 28.6533 10.3252 28.472C10.3145 28.2853 10.2559 28.128 10.1492 28C10.0479 27.872 9.88785 27.808 9.66919 27.808C9.45052 27.808 9.28785 27.872 9.18119 28C9.07985 28.128 9.02385 28.2853 9.01319 28.472C9.00785 28.5627 9.00519 28.672 9.00519 28.8C9.00519 28.9227 9.00785 29.0347 9.01319 29.136C9.02919 29.3173 9.08785 29.472 9.18919 29.6C9.29052 29.728 9.45052 29.792 9.66919 29.792ZM12.4932 33.048C12.1519 33.048 11.8825 32.952 11.6852 32.76C11.4932 32.5627 11.3892 32.2987 11.3732 31.968C11.3679 31.8773 11.3652 31.7627 11.3652 31.624C11.3652 31.4747 11.3679 31.352 11.3732 31.256C11.3892 30.92 11.4905 30.656 11.6772 30.464C11.8639 30.2667 12.1359 30.168 12.4932 30.168C12.8505 30.168 13.1225 30.2667 13.3092 30.464C13.4959 30.656 13.5972 30.92 13.6132 31.256C13.6239 31.448 13.6292 31.5707 13.6292 31.624C13.6292 31.672 13.6239 31.7867 13.6132 31.968C13.5972 32.2987 13.4905 32.5627 13.2932 32.76C13.1012 32.952 12.8345 33.048 12.4932 33.048ZM12.4932 32.6C12.7119 32.6 12.8719 32.536 12.9732 32.408C13.0745 32.28 13.1332 32.1253 13.1492 31.944C13.1599 31.7413 13.1652 31.6293 13.1652 31.608C13.1652 31.5707 13.1599 31.4613 13.1492 31.28C13.1385 31.0933 13.0799 30.936 12.9732 30.808C12.8719 30.68 12.7119 30.616 12.4932 30.616C12.2745 30.616 12.1119 30.68 12.0052 30.808C11.9039 30.936 11.8479 31.0933 11.8372 31.28C11.8319 31.3707 11.8292 31.48 11.8292 31.608C11.8292 31.7307 11.8319 31.8427 11.8372 31.944C11.8532 32.1253 11.9119 32.28 12.0132 32.408C12.1145 32.536 12.2745 32.6 12.4932 32.6Z" fill="white"/>
<line x1="7.5" y1="37" x2="7.5" y2="62" stroke="white"/>
</svg>
